<svg version="1.1" id="Layer_1" xmlns="http://www.w3.org/2000/svg" xmlns:xlink="http://www.w3.org/1999/xlink" x="0px" y="0px"
	 width="100%" viewBox="0 0 2048 2048" enable-background="new 0 0 2048 2048" xml:space="preserve">
<path fill="#010101" opacity="1.000000" stroke="none" 
	d="
M1143.000000,2049.000000 
	C762.000000,2049.000000 381.500000,2049.000000 1.000000,2049.000000 
	C1.000000,1366.333374 1.000000,683.666687 1.000000,1.000000 
	C683.666687,1.000000 1366.333374,1.000000 2049.000000,1.000000 
	C2049.000000,683.666687 2049.000000,1366.333374 2049.000000,2049.000000 
	C1747.166626,2049.000000 1445.333374,2049.000000 1143.000000,2049.000000 
M541.847839,1634.299438 
	C530.723450,1661.559082 517.975769,1688.017090 502.879364,1713.318848 
	C496.217896,1724.483398 488.463867,1734.072998 475.802460,1739.477051 
	C463.865143,1744.572021 454.171814,1753.249512 450.442322,1766.201660 
	C447.945282,1774.873779 447.160828,1784.078003 446.058624,1793.098999 
	C445.295685,1799.343384 445.912842,1805.787720 444.843597,1811.957275 
	C441.492279,1831.295044 427.966919,1842.778076 408.457947,1842.994629 
	C401.329285,1843.073730 394.180115,1842.323608 387.059814,1841.720703 
	C383.191559,1841.393433 381.030518,1842.939819 380.238403,1846.619751 
	C377.791779,1857.986328 374.974487,1869.290894 373.047729,1880.745239 
	C371.705231,1888.726074 370.910278,1896.930664 371.116669,1905.003540 
	C371.326843,1913.224365 378.254028,1920.460083 385.989746,1920.594727 
	C407.797150,1920.974243 428.169800,1916.782104 440.970093,1896.773071 
	C451.431732,1880.419800 461.345093,1863.675903 470.702972,1846.665771 
	C485.436066,1819.885010 499.053375,1792.486816 513.944153,1765.796997 
	C539.380554,1720.205444 565.096436,1674.811890 586.776855,1627.217529 
	C597.413086,1603.868042 606.057800,1579.286987 622.970764,1559.220947 
	C627.476562,1553.875122 632.132874,1548.656494 636.720093,1543.379395 
	C637.211365,1543.671509 637.702698,1543.963623 638.193970,1544.255859 
	C638.276733,1545.840088 638.597168,1547.453735 638.405518,1549.004028 
	C636.424805,1565.029297 635.237244,1581.220703 632.060181,1597.009888 
	C629.221252,1611.119019 623.983154,1624.732056 620.117920,1638.651123 
	C611.763550,1668.735718 604.218689,1699.058960 595.233887,1728.951294 
	C581.487366,1774.685425 565.164612,1819.538452 544.368347,1862.593384 
	C539.057129,1873.589600 531.948486,1883.753662 525.195679,1893.989868 
	C523.654602,1896.325684 520.343872,1898.330200 517.542786,1898.852661 
	C505.960052,1901.012451 494.401917,1900.664429 483.220154,1896.356201 
	C477.839600,1894.283203 475.412964,1895.408325 474.068665,1900.876953 
	C473.514893,1903.129517 472.877136,1905.484131 472.989014,1907.757324 
	C473.658173,1921.351562 472.943909,1935.275269 475.753632,1948.435059 
	C479.098602,1964.101807 486.148102,1970.342163 500.840576,1969.189209 
	C503.161163,1969.007080 505.511230,1969.220947 507.836548,1969.074829 
	C525.931763,1967.937622 542.056152,1961.786255 550.865173,1945.317871 
	C562.524048,1923.521851 573.565247,1901.221680 582.621338,1878.250977 
	C593.950317,1849.515503 603.000366,1819.881226 613.021484,1790.630493 
	C626.381775,1751.632690 637.302612,1711.765015 654.541138,1674.150269 
	C667.314575,1646.278442 681.339661,1619.134399 700.065552,1594.654297 
	C702.959839,1590.870605 705.320984,1586.602173 707.429871,1582.312744 
	C710.464111,1576.141113 714.307129,1570.995361 720.861938,1568.219727 
	C741.814514,1559.346802 762.594604,1550.047729 783.708679,1541.579834 
	C810.698547,1530.755249 838.119873,1520.999756 865.046631,1510.026123 
	C904.670715,1493.877808 942.579651,1474.318970 978.585022,1451.096558 
	C999.629761,1437.523315 1017.120544,1420.736084 1026.866821,1397.333374 
	C1033.628906,1381.096313 1039.285522,1364.383301 1044.976685,1347.726196 
	C1046.546387,1343.132202 1046.994263,1337.973267 1046.973511,1333.077759 
	C1046.958252,1329.471558 1048.068359,1327.846069 1051.340576,1327.173340 
	C1052.967896,1326.838623 1054.556519,1326.319336 1056.170776,1325.915771 
	C1091.040649,1317.197876 1125.933716,1308.571167 1160.777466,1299.749634 
	C1212.233887,1286.722290 1263.488525,1272.850098 1315.142456,1260.665771 
	C1359.338013,1250.240723 1403.940186,1241.518311 1448.430664,1232.375000 
	C1468.143433,1228.323853 1488.019043,1225.061035 1507.834351,1221.517212 
	C1511.386230,1220.882202 1515.104980,1219.960693 1518.023560,1223.340576 
	C1522.923462,1229.015259 1529.306885,1229.770508 1536.206665,1228.723145 
	C1539.168579,1228.273560 1542.154175,1227.927490 1545.081543,1227.309570 
	C1571.771851,1221.676025 1598.338989,1215.376587 1625.161133,1210.469727 
	C1665.037598,1203.174805 1705.306641,1198.585327 1745.908203,1200.058838 
	C1771.336182,1200.981689 1796.716309,1203.550171 1822.079346,1205.811401 
	C1836.190796,1207.069580 1846.287354,1214.400513 1851.340576,1227.978760 
	C1853.195190,1232.962280 1855.286865,1237.886353 1856.726196,1242.991089 
	C1867.589844,1281.517822 1874.140747,1320.861328 1878.966431,1360.545288 
	C1881.284180,1379.605957 1875.124512,1394.977783 1859.961914,1406.578125 
	C1856.881226,1408.935181 1853.036621,1410.865601 1849.265991,1411.643433 
	C1837.477905,1414.075073 1825.833496,1413.174316 1814.541382,1408.590942 
	C1811.182129,1407.227661 1807.569824,1405.580811 1804.086060,1405.609131 
	C1795.268188,1405.680786 1792.709595,1405.863647 1790.505859,1414.194336 
	C1786.339355,1429.943726 1787.761475,1445.647095 1790.673096,1461.263306 
	C1792.033447,1468.559570 1794.346436,1475.753906 1796.974731,1482.712158 
	C1798.816284,1487.588379 1802.371704,1492.595337 1807.878174,1492.668579 
	C1825.376709,1492.901367 1842.229004,1489.807495 1855.393921,1477.002930 
	C1861.326538,1471.232666 1866.415649,1464.540771 1871.511108,1457.974976 
	C1883.037109,1443.122437 1893.662720,1427.512207 1908.589478,1415.636841 
	C1913.800659,1411.490967 1919.148926,1407.470581 1924.002197,1402.930664 
	C1935.626831,1392.057251 1938.564087,1376.158203 1930.600952,1363.997559 
	C1924.183228,1354.196411 1919.802490,1343.667603 1917.258057,1332.443726 
	C1909.900757,1299.989136 1902.994263,1267.432495 1895.815674,1234.936890 
	C1891.258911,1214.309448 1887.101807,1193.569336 1881.714966,1173.156982 
	C1876.780518,1154.458618 1864.684937,1143.113159 1844.722412,1140.213501 
	C1821.256348,1136.804565 1797.980103,1132.110474 1774.557007,1128.378540 
	C1748.958862,1124.299927 1723.385742,1119.682495 1697.619873,1117.148438 
	C1671.800659,1114.609131 1645.755737,1114.372192 1619.812378,1113.075928 
	C1614.483765,1112.809692 1609.166138,1112.321411 1602.689575,1111.851807 
	C1605.560425,1108.128174 1607.619385,1105.369629 1609.769409,1102.684082 
	C1620.478760,1089.307617 1632.019775,1076.509644 1641.749268,1062.456665 
	C1656.644165,1040.942505 1665.955078,1017.106689 1667.447876,990.526123 
	C1668.686401,968.473938 1667.159180,946.577454 1665.185547,924.659851 
	C1661.589355,884.719971 1654.274414,845.587402 1641.458130,807.476074 
	C1625.514771,760.066284 1597.512451,721.581665 1557.545654,691.713257 
	C1541.689697,679.863586 1525.577148,668.356812 1509.721191,656.506958 
	C1500.542969,649.647522 1499.480347,641.869385 1506.398315,632.851318 
	C1510.138550,627.975891 1513.978516,623.031738 1518.512939,618.937561 
	C1533.589478,605.324646 1548.936646,592.008301 1564.301880,578.719116 
	C1580.924683,564.342407 1598.017700,550.490906 1614.281128,535.722778 
	C1627.896240,523.359497 1635.260620,507.245789 1637.754761,489.103394 
	C1640.394409,469.901611 1623.790527,455.852753 1605.618286,461.962921 
	C1587.018799,468.216766 1568.169800,474.004272 1550.187256,481.753265 
	C1522.571167,493.653442 1495.634888,507.125763 1468.335449,519.769958 
	C1461.930664,522.736389 1455.227417,525.058594 1447.281616,528.227478 
	C1448.143311,524.135620 1448.179810,521.445007 1449.269409,519.285889 
	C1451.959106,513.956787 1455.422119,509.013519 1458.043701,503.655670 
	C1462.202271,495.156860 1466.463135,486.635468 1469.604614,477.743408 
	C1471.106567,473.491669 1473.060303,471.270233 1477.150391,470.398499 
	C1478.612061,470.086975 1480.078491,469.725067 1481.479980,469.214020 
	C1512.474609,457.912231 1540.748413,441.802734 1564.541138,418.920624 
	C1588.227295,396.140778 1603.934204,369.892578 1598.162109,334.627594 
	C1593.791870,307.926910 1588.237427,296.399231 1566.761475,279.952545 
	C1565.430908,278.933594 1562.902466,278.511230 1561.373657,279.054962 
	C1560.331787,279.425476 1559.442505,282.017059 1559.569214,283.524445 
	C1559.873779,287.151031 1560.807617,290.725739 1561.502930,294.318420 
	C1563.708496,305.715393 1566.452271,317.040863 1567.969360,328.528473 
	C1569.271729,338.390350 1563.218262,345.454498 1556.344604,351.599670 
	C1554.403076,353.335449 1552.490723,353.457764 1551.794312,350.033051 
	C1548.001709,331.384521 1539.324585,315.680878 1523.074585,305.130310 
	C1515.587402,300.269226 1507.535034,296.229401 1499.527832,292.240906 
	C1495.809692,290.388947 1493.212769,292.293610 1492.152466,296.331665 
	C1490.163330,303.906464 1491.241699,310.579773 1496.525024,316.773499 
	C1506.217163,328.135651 1509.058838,340.972290 1503.931396,355.376801 
	C1499.176270,368.734955 1491.647095,379.639069 1478.590210,386.095612 
	C1474.574829,388.081116 1471.157959,388.056213 1469.164185,383.455566 
	C1466.989258,378.437073 1464.618286,373.440796 1463.113037,368.210297 
	C1461.138184,361.347778 1460.075806,354.228760 1458.360718,347.284332 
	C1451.022461,317.571259 1446.848633,287.639343 1447.921265,256.821564 
	C1448.817749,231.062332 1447.921509,205.203064 1446.881470,179.425919 
	C1446.037964,158.522141 1437.439819,140.541855 1422.591187,125.721970 
	C1418.759521,121.897720 1416.934937,122.018997 1414.270630,126.134308 
	C1407.476929,136.628036 1406.213623,148.078049 1408.955933,160.098892 
	C1411.756470,172.375641 1415.530884,184.517395 1417.204590,196.943756 
	C1419.767090,215.967117 1418.738525,234.803268 1409.123535,252.300674 
	C1400.883057,267.296204 1384.598389,273.075195 1370.725342,265.405609 
	C1351.844238,254.967331 1336.187866,240.954407 1325.177002,222.302017 
	C1309.703979,196.090927 1294.624390,169.647354 1279.404785,143.286972 
	C1272.743408,131.749664 1266.584473,119.778801 1256.149170,111.071144 
	C1250.535034,106.386360 1244.211060,102.552254 1237.566650,97.884247 
	C1237.122681,100.126495 1236.823730,100.782761 1236.903076,101.389587 
	C1237.182861,103.531311 1237.390381,105.714088 1237.983154,107.778519 
	C1245.832642,135.112366 1254.395386,162.199539 1266.211304,188.141205 
	C1274.467651,206.267715 1282.462402,224.519852 1291.078979,242.473572 
	C1297.437500,255.722794 1295.820801,268.011993 1289.309326,280.626495 
	C1282.305908,294.193481 1269.924438,301.518463 1254.839478,300.368896 
	C1246.046997,299.698822 1237.217163,299.321259 1228.400269,299.239899 
	C1223.118896,299.191162 1218.956177,302.972626 1220.205322,306.274139 
	C1224.545166,317.744446 1231.116455,328.094788 1243.720093,330.747711 
	C1259.440430,334.056641 1275.317993,331.999390 1290.137451,325.651947 
	C1299.104126,321.811340 1307.327148,316.270355 1316.063354,311.846863 
	C1330.869629,304.349640 1346.410889,300.537262 1362.854736,305.251862 
	C1369.518555,307.162384 1375.913696,310.177429 1382.217529,313.143860 
	C1401.744019,322.332397 1416.431885,336.073334 1424.383667,356.753296 
	C1430.519287,372.710022 1432.061523,389.374847 1434.060059,406.040985 
	C1434.804443,412.246582 1434.001831,413.280853 1427.693604,412.129364 
	C1424.562866,411.557861 1421.750000,409.416229 1418.646729,408.461243 
	C1416.719116,407.867981 1414.516724,408.166992 1412.437744,408.065491 
	C1412.575317,409.753235 1412.272339,411.636963 1412.921875,413.096924 
	C1417.170288,422.645081 1421.660278,432.085266 1426.003662,441.591644 
	C1432.941162,456.776031 1435.712402,472.142426 1426.662842,487.454163 
	C1423.211548,493.293640 1419.528809,499.264954 1414.772339,503.988892 
	C1409.995605,508.733124 1403.750854,511.999176 1397.219482,516.562988 
	C1392.977783,506.200104 1389.619385,497.193451 1385.596558,488.494019 
	C1383.479858,483.916168 1382.872192,479.718079 1383.505005,474.659454 
	C1384.229126,468.872345 1384.929688,462.130798 1382.705200,457.102509 
	C1375.692993,441.251984 1366.107422,426.771454 1354.921509,413.458374 
	C1352.664062,410.771759 1349.843140,408.558624 1347.085693,405.940765 
	C1343.765869,411.979645 1343.326782,417.294525 1344.645874,423.121521 
	C1346.994873,433.497070 1349.113892,443.944977 1350.787720,454.448883 
	C1354.107056,475.278503 1344.208618,491.119110 1330.531128,505.179810 
	C1324.868164,511.001495 1317.172607,509.584351 1310.241211,508.666870 
	C1298.062500,507.054932 1296.934448,505.304565 1298.241943,493.121979 
	C1299.165771,484.514862 1300.689819,475.967499 1301.464600,467.350159 
	C1302.611816,454.591797 1302.154663,441.978638 1294.905762,430.713196 
	C1293.958740,429.241608 1292.085083,427.452423 1290.601318,427.416138 
	C1286.570557,427.317505 1281.375366,432.717407 1280.996582,436.842377 
	C1280.524414,441.983551 1280.285522,447.145752 1279.869019,452.292633 
	C1278.921875,463.994934 1275.258179,474.343109 1265.550415,481.878357 
	C1262.505493,484.241852 1259.981079,484.589294 1256.646729,482.387085 
	C1248.534668,477.029480 1243.733887,469.292969 1241.468872,460.258484 
	C1238.801880,449.620941 1237.291870,438.698486 1235.075439,427.941742 
	C1229.374146,400.272430 1217.205566,375.509583 1201.048340,352.532501 
	C1197.417847,347.369568 1192.700562,345.338013 1186.496094,345.768402 
	C1173.583130,346.664154 1169.948853,346.240997 1177.817993,361.673065 
	C1183.699829,373.207703 1189.892456,384.594604 1195.418945,396.296570 
	C1200.597534,407.261993 1204.009399,418.922729 1201.777588,431.142059 
	C1199.408447,444.113312 1193.517700,448.818146 1181.420288,442.121582 
	C1157.432251,428.842834 1138.821289,410.304718 1129.805420,384.159698 
	C1120.872314,358.254822 1113.190430,331.879852 1105.975342,305.433960 
	C1100.598633,285.726257 1095.803467,265.737762 1092.677490,245.575333 
	C1090.004150,228.333145 1082.229858,214.204163 1072.049072,200.833618 
	C1070.657715,199.006348 1068.905884,197.390259 1067.098022,195.957657 
	C1064.066895,193.555939 1061.510742,193.932220 1059.200317,197.344559 
	C1052.975952,206.537903 1050.699951,216.516632 1053.378540,227.289154 
	C1057.745239,244.850906 1062.554565,262.302368 1066.958740,279.855133 
	C1071.084839,296.299408 1074.813477,312.843353 1078.932495,329.289490 
	C1082.050903,341.740356 1082.556274,354.150055 1077.479126,366.066284 
	C1070.885132,381.542664 1061.242676,386.381622 1047.292358,380.233856 
	C1045.162354,379.295227 1042.954102,378.422607 1041.029907,377.145966 
	C1023.152283,365.284576 1005.435059,353.178528 987.457092,341.472412 
	C972.617310,331.809692 959.257996,320.745056 950.470886,305.053711 
	C944.619507,294.604675 939.319824,283.842621 933.338379,273.471466 
	C926.063660,260.857880 916.163513,250.626282 903.523315,243.243408 
	C897.657166,239.817078 895.698730,240.736801 894.533630,247.588501 
	C892.890320,257.251831 895.101196,266.612885 898.409912,275.493195 
	C905.423096,294.315948 913.196777,312.853790 920.429199,331.597015 
	C924.062134,341.012115 930.361267,347.968018 938.636047,353.418671 
	C954.578308,363.919800 970.540588,374.391846 986.398560,385.019226 
	C999.363464,393.707733 1011.968628,402.957886 1025.203369,411.204590 
	C1029.455566,413.854156 1029.983398,416.342224 1029.169312,420.454071 
	C1026.885986,431.986725 1021.238342,441.827606 1012.713501,449.543701 
	C987.631409,472.246124 958.085266,475.333740 926.993347,466.268982 
	C916.618530,463.244202 908.634583,465.498322 899.668701,470.157745 
	C900.483582,471.956573 900.875305,473.637360 901.851929,474.845215 
	C908.336914,482.865601 914.806274,490.909058 921.627869,498.638611 
	C923.108276,500.315979 925.908813,501.235870 928.255310,501.667786 
	C936.603516,503.204529 944.988831,504.625092 953.414551,505.635559 
	C966.495239,507.204224 979.563354,506.651001 991.571350,500.822937 
	C1001.075134,496.210205 1010.841614,491.410858 1018.941345,484.796326 
	C1032.567871,473.668488 1044.761597,460.803467 1058.005371,449.178650 
	C1061.808228,445.840607 1066.907593,443.068695 1071.825195,442.070862 
	C1091.856445,438.006226 1110.296387,444.344238 1127.215088,453.983643 
	C1146.821533,465.154327 1165.865356,477.441864 1184.420288,490.302246 
	C1221.815186,516.220703 1260.917236,538.900574 1302.493286,557.491272 
	C1312.935425,562.160461 1322.107300,569.741943 1331.652222,576.292236 
	C1333.866943,577.812134 1336.601196,580.001282 1334.448120,585.034058 
	C1322.471558,585.034058 1310.042480,585.086121 1297.614014,585.024353 
	C1259.893555,584.836853 1223.898682,592.239807 1189.869019,608.874268 
	C1181.485107,612.972473 1173.724121,617.444702 1168.966797,625.839233 
	C1165.313965,632.284607 1165.704956,636.031982 1171.431152,640.647400 
	C1192.321899,657.485657 1216.102539,665.000854 1242.970703,662.546265 
	C1266.839600,660.365662 1289.087891,653.064392 1310.261353,642.050598 
	C1317.420776,638.326416 1324.807617,635.039856 1332.567749,631.324829 
	C1332.984619,634.276489 1333.246826,636.219482 1333.534668,638.158691 
	C1339.150146,676.004028 1351.104736,712.195923 1362.344727,748.573730 
	C1369.379883,771.342712 1375.858032,794.258972 1376.338745,818.298706 
	C1376.554321,829.079651 1377.447632,840.385803 1372.093872,850.157471 
	C1365.556519,862.089600 1358.570312,873.976685 1350.231812,884.678284 
	C1334.242554,905.198730 1313.150024,919.968994 1290.698853,932.605042 
	C1257.009521,951.566162 1221.588379,966.912476 1185.964722,981.839172 
	C1133.449829,1003.843750 1080.053955,1023.494690 1026.060303,1041.457397 
	C979.818726,1056.841064 933.193237,1071.070312 886.743164,1085.827881 
	C855.353821,1095.800781 823.977844,1105.815796 792.587585,1115.785767 
	C784.245361,1118.435303 775.734802,1120.270020 767.056580,1117.857910 
	C745.886353,1111.973511 728.993958,1100.123413 716.992493,1081.496704 
	C715.001282,1078.406372 712.750305,1075.109497 709.811523,1073.075073 
	C701.509949,1067.328491 692.681824,1069.787598 684.009399,1072.580200 
	C676.166138,1075.105835 671.421692,1080.586426 671.407349,1088.681885 
	C671.395142,1095.529663 671.999756,1102.761475 674.290771,1109.116943 
	C676.350037,1114.829468 680.750366,1119.843140 684.684143,1124.707275 
	C695.912659,1138.591187 709.254333,1150.118530 725.797607,1157.102173 
	C734.736755,1160.875854 744.360901,1163.026978 753.948364,1165.994385 
	C753.948364,1167.431274 754.116150,1169.250366 753.920288,1171.029541 
	C752.882446,1180.457397 751.603943,1189.860352 750.680359,1199.298706 
	C745.199280,1255.312744 754.549744,1309.044678 775.897461,1360.865356 
	C777.281738,1364.225708 777.115112,1366.587769 774.143982,1368.596558 
	C764.667664,1375.003052 755.762085,1382.594238 745.576111,1387.548828 
	C710.590332,1404.566650 675.060181,1420.460938 639.935547,1437.199341 
	C626.161621,1443.763184 612.885803,1451.378418 599.436035,1458.613159 
	C594.361694,1461.342773 592.195435,1466.008667 590.992310,1471.499146 
	C586.362427,1492.626465 582.882446,1514.133179 576.449768,1534.709351 
	C566.044983,1567.991211 553.647827,1600.650146 541.847839,1634.299438 
z"/>
<path fill="#FDFDFC" opacity="1.000000" stroke="none" 
	d="
M541.969971,1633.935791 
	C553.647827,1600.650146 566.044983,1567.991211 576.449768,1534.709351 
	C582.882446,1514.133179 586.362427,1492.626465 590.992310,1471.499146 
	C592.195435,1466.008667 594.361694,1461.342773 599.436035,1458.613159 
	C612.885803,1451.378418 626.161621,1443.763184 639.935547,1437.199341 
	C675.060181,1420.460938 710.590332,1404.566650 745.576111,1387.548828 
	C755.762085,1382.594238 764.667664,1375.003052 774.143982,1368.596558 
	C777.115112,1366.587769 777.281738,1364.225708 775.897461,1360.865356 
	C754.549744,1309.044678 745.199280,1255.312744 750.680359,1199.298706 
	C751.603943,1189.860352 752.882446,1180.457397 753.920288,1171.029541 
	C754.116150,1169.250366 753.948364,1167.431274 753.948364,1165.994385 
	C744.360901,1163.026978 734.736755,1160.875854 725.797607,1157.102173 
	C709.254333,1150.118530 695.912659,1138.591187 684.684143,1124.707275 
	C680.750366,1119.843140 676.350037,1114.829468 674.290771,1109.116943 
	C671.999756,1102.761475 671.395142,1095.529663 671.407349,1088.681885 
	C671.421692,1080.586426 676.166138,1075.105835 684.009399,1072.580200 
	C692.681824,1069.787598 701.509949,1067.328491 709.811523,1073.075073 
	C712.750305,1075.109497 715.001282,1078.406372 716.992493,1081.496704 
	C728.993958,1100.123413 745.886353,1111.973511 767.056580,1117.857910 
	C775.734802,1120.270020 784.245361,1118.435303 792.587585,1115.785767 
	C823.977844,1105.815796 855.353821,1095.800781 886.743164,1085.827881 
	C933.193237,1071.070312 979.818726,1056.841064 1026.060303,1041.457397 
	C1080.053955,1023.494690 1133.449829,1003.843750 1185.964722,981.839172 
	C1221.588379,966.912476 1257.009521,951.566162 1290.698853,932.605042 
	C1313.150024,919.968994 1334.242554,905.198730 1350.231812,884.678284 
	C1358.570312,873.976685 1365.556519,862.089600 1372.093872,850.157471 
	C1377.447632,840.385803 1376.554321,829.079651 1376.338745,818.298706 
	C1375.858032,794.258972 1369.379883,771.342712 1362.344727,748.573730 
	C1351.104736,712.195923 1339.150146,676.004028 1333.534668,638.158691 
	C1333.246826,636.219482 1332.984619,634.276489 1332.567749,631.324829 
	C1324.807617,635.039856 1317.420776,638.326416 1310.261353,642.050598 
	C1289.087891,653.064392 1266.839600,660.365662 1242.970703,662.546265 
	C1216.102539,665.000854 1192.321899,657.485657 1171.431152,640.647400 
	C1165.704956,636.031982 1165.313965,632.284607 1168.966797,625.839233 
	C1173.724121,617.444702 1181.485107,612.972473 1189.869019,608.874268 
	C1223.898682,592.239807 1259.893555,584.836853 1297.614014,585.024353 
	C1310.042480,585.086121 1322.471558,585.034058 1334.448120,585.034058 
	C1336.601196,580.001282 1333.866943,577.812134 1331.652222,576.292236 
	C1322.107300,569.741943 1312.935425,562.160461 1302.493286,557.491272 
	C1260.917236,538.900574 1221.815186,516.220703 1184.420288,490.302246 
	C1165.865356,477.441864 1146.821533,465.154327 1127.215088,453.983643 
	C1110.296387,444.344238 1091.856445,438.006226 1071.825195,442.070862 
	C1066.907593,443.068695 1061.808228,445.840607 1058.005371,449.178650 
	C1044.761597,460.803467 1032.567871,473.668488 1018.941345,484.796326 
	C1010.841614,491.410858 1001.075134,496.210205 991.571350,500.822937 
	C979.563354,506.651001 966.495239,507.204224 953.414551,505.635559 
	C944.988831,504.625092 936.603516,503.204529 928.255310,501.667786 
	C925.908813,501.235870 923.108276,500.315979 921.627869,498.638611 
	C914.806274,490.909058 908.336914,482.865601 901.851929,474.845215 
	C900.875305,473.637360 900.483582,471.956573 899.668701,470.157745 
	C908.634583,465.498322 916.618530,463.244202 926.993347,466.268982 
	C958.085266,475.333740 987.631409,472.246124 1012.713501,449.543701 
	C1021.238342,441.827606 1026.885986,431.986725 1029.169312,420.454071 
	C1029.983398,416.342224 1029.455566,413.854156 1025.203369,411.204590 
	C1011.968628,402.957886 999.363464,393.707733 986.398560,385.019226 
	C970.540588,374.391846 954.578308,363.919800 938.636047,353.418671 
	C930.361267,347.968018 924.062134,341.012115 920.429199,331.597015 
	C913.196777,312.853790 905.423096,294.315948 898.409912,275.493195 
	C895.101196,266.612885 892.890320,257.251831 894.533630,247.588501 
	C895.698730,240.736801 897.657166,239.817078 903.523315,243.243408 
	C916.163513,250.626282 926.063660,260.857880 933.338379,273.471466 
	C939.319824,283.842621 944.619507,294.604675 950.470886,305.053711 
	C959.257996,320.745056 972.617310,331.809692 987.457092,341.472412 
	C1005.435059,353.178528 1023.152283,365.284576 1041.029907,377.145966 
	C1042.954102,378.422607 1045.162354,379.295227 1047.292358,380.233856 
	C1061.242676,386.381622 1070.885132,381.542664 1077.479126,366.066284 
	C1082.556274,354.150055 1082.050903,341.740356 1078.932495,329.289490 
	C1074.813477,312.843353 1071.084839,296.299408 1066.958740,279.855133 
	C1062.554565,262.302368 1057.745239,244.850906 1053.378540,227.289154 
	C1050.699951,216.516632 1052.975952,206.537903 1059.200317,197.344559 
	C1061.510742,193.932220 1064.066895,193.555939 1067.098022,195.957657 
	C1068.905884,197.390259 1070.657715,199.006348 1072.049072,200.833618 
	C1082.229858,214.204163 1090.004150,228.333145 1092.677490,245.575333 
	C1095.803467,265.737762 1100.598633,285.726257 1105.975342,305.433960 
	C1113.190430,331.879852 1120.872314,358.254822 1129.805420,384.159698 
	C1138.821289,410.304718 1157.432251,428.842834 1181.420288,442.121582 
	C1193.517700,448.818146 1199.408447,444.113312 1201.777588,431.142059 
	C1204.009399,418.922729 1200.597534,407.261993 1195.418945,396.296570 
	C1189.892456,384.594604 1183.699829,373.207703 1177.817993,361.673065 
	C1169.948853,346.240997 1173.583130,346.664154 1186.496094,345.768402 
	C1192.700562,345.338013 1197.417847,347.369568 1201.048340,352.532501 
	C1217.205566,375.509583 1229.374146,400.272430 1235.075439,427.941742 
	C1237.291870,438.698486 1238.801880,449.620941 1241.468872,460.258484 
	C1243.733887,469.292969 1248.534668,477.029480 1256.646729,482.387085 
	C1259.981079,484.589294 1262.505493,484.241852 1265.550415,481.878357 
	C1275.258179,474.343109 1278.921875,463.994934 1279.869019,452.292633 
	C1280.285522,447.145752 1280.524414,441.983551 1280.996582,436.842377 
	C1281.375366,432.717407 1286.570557,427.317505 1290.601318,427.416138 
	C1292.085083,427.452423 1293.958740,429.241608 1294.905762,430.713196 
	C1302.154663,441.978638 1302.611816,454.591797 1301.464600,467.350159 
	C1300.689819,475.967499 1299.165771,484.514862 1298.241943,493.121979 
	C1296.934448,505.304565 1298.062500,507.054932 1310.241211,508.666870 
	C1317.172607,509.584351 1324.868164,511.001495 1330.531128,505.179810 
	C1344.208618,491.119110 1354.107056,475.278503 1350.787720,454.448883 
	C1349.113892,443.944977 1346.994873,433.497070 1344.645874,423.121521 
	C1343.326782,417.294525 1343.765869,411.979645 1347.085693,405.940765 
	C1349.843140,408.558624 1352.664062,410.771759 1354.921509,413.458374 
	C1366.107422,426.771454 1375.692993,441.251984 1382.705200,457.102509 
	C1384.929688,462.130798 1384.229126,468.872345 1383.505005,474.659454 
	C1382.872192,479.718079 1383.479858,483.916168 1385.596558,488.494019 
	C1389.619385,497.193451 1392.977783,506.200104 1397.219482,516.562988 
	C1403.750854,511.999176 1409.995605,508.733124 1414.772339,503.988892 
	C1419.528809,499.264954 1423.211548,493.293640 1426.662842,487.454163 
	C1435.712402,472.142426 1432.941162,456.776031 1426.003662,441.591644 
	C1421.660278,432.085266 1417.170288,422.645081 1412.921875,413.096924 
	C1412.272339,411.636963 1412.575317,409.753235 1412.437744,408.065491 
	C1414.516724,408.166992 1416.719116,407.867981 1418.646729,408.461243 
	C1421.750000,409.416229 1424.562866,411.557861 1427.693604,412.129364 
	C1434.001831,413.280853 1434.804443,412.246582 1434.060059,406.040985 
	C1432.061523,389.374847 1430.519287,372.710022 1424.383667,356.753296 
	C1416.431885,336.073334 1401.744019,322.332397 1382.217529,313.143860 
	C1375.913696,310.177429 1369.518555,307.162384 1362.854736,305.251862 
	C1346.410889,300.537262 1330.869629,304.349640 1316.063354,311.846863 
	C1307.327148,316.270355 1299.104126,321.811340 1290.137451,325.651947 
	C1275.317993,331.999390 1259.440430,334.056641 1243.720093,330.747711 
	C1231.116455,328.094788 1224.545166,317.744446 1220.205322,306.274139 
	C1218.956177,302.972626 1223.118896,299.191162 1228.400269,299.239899 
	C1237.217163,299.321259 1246.046997,299.698822 1254.839478,300.368896 
	C1269.924438,301.518463 1282.305908,294.193481 1289.309326,280.626495 
	C1295.820801,268.011993 1297.437500,255.722794 1291.078979,242.473572 
	C1282.462402,224.519852 1274.467651,206.267715 1266.211304,188.141205 
	C1254.395386,162.199539 1245.832642,135.112366 1237.983154,107.778519 
	C1237.390381,105.714088 1237.182861,103.531311 1236.903076,101.389587 
	C1236.823730,100.782761 1237.122681,100.126495 1237.566650,97.884247 
	C1244.211060,102.552254 1250.535034,106.386360 1256.149170,111.071144 
	C1266.584473,119.778801 1272.743408,131.749664 1279.404785,143.286972 
	C1294.624390,169.647354 1309.703979,196.090927 1325.177002,222.302017 
	C1336.187866,240.954407 1351.844238,254.967331 1370.725342,265.405609 
	C1384.598389,273.075195 1400.883057,267.296204 1409.123535,252.300674 
	C1418.738525,234.803268 1419.767090,215.967117 1417.204590,196.943756 
	C1415.530884,184.517395 1411.756470,172.375641 1408.955933,160.098892 
	C1406.213623,148.078049 1407.476929,136.628036 1414.270630,126.134308 
	C1416.934937,122.018997 1418.759521,121.897720 1422.591187,125.721970 
	C1437.439819,140.541855 1446.037964,158.522141 1446.881470,179.425919 
	C1447.921509,205.203064 1448.817749,231.062332 1447.921265,256.821564 
	C1446.848633,287.639343 1451.022461,317.571259 1458.360718,347.284332 
	C1460.075806,354.228760 1461.138184,361.347778 1463.113037,368.210297 
	C1464.618286,373.440796 1466.989258,378.437073 1469.164185,383.455566 
	C1471.157959,388.056213 1474.574829,388.081116 1478.590210,386.095612 
	C1491.647095,379.639069 1499.176270,368.734955 1503.931396,355.376801 
	C1509.058838,340.972290 1506.217163,328.135651 1496.525024,316.773499 
	C1491.241699,310.579773 1490.163330,303.906464 1492.152466,296.331665 
	C1493.212769,292.293610 1495.809692,290.388947 1499.527832,292.240906 
	C1507.535034,296.229401 1515.587402,300.269226 1523.074585,305.130310 
	C1539.324585,315.680878 1548.001709,331.384521 1551.794312,350.033051 
	C1552.490723,353.457764 1554.403076,353.335449 1556.344604,351.599670 
	C1563.218262,345.454498 1569.271729,338.390350 1567.969360,328.528473 
	C1566.452271,317.040863 1563.708496,305.715393 1561.502930,294.318420 
	C1560.807617,290.725739 1559.873779,287.151031 1559.569214,283.524445 
	C1559.442505,282.017059 1560.331787,279.425476 1561.373657,279.054962 
	C1562.902466,278.511230 1565.430908,278.933594 1566.761475,279.952545 
	C1588.237427,296.399231 1593.791870,307.926910 1598.162109,334.627594 
	C1603.934204,369.892578 1588.227295,396.140778 1564.541138,418.920624 
	C1540.748413,441.802734 1512.474609,457.912231 1481.479980,469.214020 
	C1480.078491,469.725067 1478.612061,470.086975 1477.150391,470.398499 
	C1473.060303,471.270233 1471.106567,473.491669 1469.604614,477.743408 
	C1466.463135,486.635468 1462.202271,495.156860 1458.043701,503.655670 
	C1455.422119,509.013519 1451.959106,513.956787 1449.269409,519.285889 
	C1448.179810,521.445007 1448.143311,524.135620 1447.281616,528.227478 
	C1455.227417,525.058594 1461.930664,522.736389 1468.335449,519.769958 
	C1495.634888,507.125763 1522.571167,493.653442 1550.187256,481.753265 
	C1568.169800,474.004272 1587.018799,468.216766 1605.618286,461.962921 
	C1623.790527,455.852753 1640.394409,469.901611 1637.754761,489.103394 
	C1635.260620,507.245789 1627.896240,523.359497 1614.281128,535.722778 
	C1598.017700,550.490906 1580.924683,564.342407 1564.301880,578.719116 
	C1548.936646,592.008301 1533.589478,605.324646 1518.512939,618.937561 
	C1513.978516,623.031738 1510.138550,627.975891 1506.398315,632.851318 
	C1499.480347,641.869385 1500.542969,649.647522 1509.721191,656.506958 
	C1525.577148,668.356812 1541.689697,679.863586 1557.545654,691.713257 
	C1597.512451,721.581665 1625.514771,760.066284 1641.458130,807.476074 
	C1654.274414,845.587402 1661.589355,884.719971 1665.185547,924.659851 
	C1667.159180,946.577454 1668.686401,968.473938 1667.447876,990.526123 
	C1665.955078,1017.106689 1656.644165,1040.942505 1641.749268,1062.456665 
	C1632.019775,1076.509644 1620.478760,1089.307617 1609.769409,1102.684082 
	C1607.619385,1105.369629 1605.560425,1108.128174 1602.689575,1111.851807 
	C1609.166138,1112.321411 1614.483765,1112.809692 1619.812378,1113.075928 
	C1645.755737,1114.372192 1671.800659,1114.609131 1697.619873,1117.148438 
	C1723.385742,1119.682495 1748.958862,1124.299927 1774.557007,1128.378540 
	C1797.980103,1132.110474 1821.256348,1136.804565 1844.722412,1140.213501 
	C1864.684937,1143.113159 1876.780518,1154.458618 1881.714966,1173.156982 
	C1887.101807,1193.569336 1891.258911,1214.309448 1895.815674,1234.936890 
	C1902.994263,1267.432495 1909.900757,1299.989136 1917.258057,1332.443726 
	C1919.802490,1343.667603 1924.183228,1354.196411 1930.600952,1363.997559 
	C1938.564087,1376.158203 1935.626831,1392.057251 1924.002197,1402.930664 
	C1919.148926,1407.470581 1913.800659,1411.490967 1908.589478,1415.636841 
	C1893.662720,1427.512207 1883.037109,1443.122437 1871.511108,1457.974976 
	C1866.415649,1464.540771 1861.326538,1471.232666 1855.393921,1477.002930 
	C1842.229004,1489.807495 1825.376709,1492.901367 1807.878174,1492.668579 
	C1802.371704,1492.595337 1798.816284,1487.588379 1796.974731,1482.712158 
	C1794.346436,1475.753906 1792.033447,1468.559570 1790.673096,1461.263306 
	C1787.761475,1445.647095 1786.339355,1429.943726 1790.505859,1414.194336 
	C1792.709595,1405.863647 1795.268188,1405.680786 1804.086060,1405.609131 
	C1807.569824,1405.580811 1811.182129,1407.227661 1814.541382,1408.590942 
	C1825.833496,1413.174316 1837.477905,1414.075073 1849.265991,1411.643433 
	C1853.036621,1410.865601 1856.881226,1408.935181 1859.961914,1406.578125 
	C1875.124512,1394.977783 1881.284180,1379.605957 1878.966431,1360.545288 
	C1874.140747,1320.861328 1867.589844,1281.517822 1856.726196,1242.991089 
	C1855.286865,1237.886353 1853.195190,1232.962280 1851.340576,1227.978760 
	C1846.287354,1214.400513 1836.190796,1207.069580 1822.079346,1205.811401 
	C1796.716309,1203.550171 1771.336182,1200.981689 1745.908203,1200.058838 
	C1705.306641,1198.585327 1665.037598,1203.174805 1625.161133,1210.469727 
	C1598.338989,1215.376587 1571.771851,1221.676025 1545.081543,1227.309570 
	C1542.154175,1227.927490 1539.168579,1228.273560 1536.206665,1228.723145 
	C1529.306885,1229.770508 1522.923462,1229.015259 1518.023560,1223.340576 
	C1515.104980,1219.960693 1511.386230,1220.882202 1507.834351,1221.517212 
	C1488.019043,1225.061035 1468.143433,1228.323853 1448.430664,1232.375000 
	C1403.940186,1241.518311 1359.338013,1250.240723 1315.142456,1260.665771 
	C1263.488525,1272.850098 1212.233887,1286.722290 1160.777466,1299.749634 
	C1125.933716,1308.571167 1091.040649,1317.197876 1056.170776,1325.915771 
	C1054.556519,1326.319336 1052.967896,1326.838623 1051.340576,1327.173340 
	C1048.068359,1327.846069 1046.958252,1329.471558 1046.973511,1333.077759 
	C1046.994263,1337.973267 1046.546387,1343.132202 1044.976685,1347.726196 
	C1039.285522,1364.383301 1033.628906,1381.096313 1026.866821,1397.333374 
	C1017.120544,1420.736084 999.629761,1437.523315 978.585022,1451.096558 
	C942.579651,1474.318970 904.670715,1493.877808 865.046631,1510.026123 
	C838.119873,1520.999756 810.698547,1530.755249 783.708679,1541.579834 
	C762.594604,1550.047729 741.814514,1559.346802 720.861938,1568.219727 
	C714.307129,1570.995361 710.464111,1576.141113 707.429871,1582.312744 
	C705.320984,1586.602173 702.959839,1590.870605 700.065552,1594.654297 
	C681.339661,1619.134399 667.314575,1646.278442 654.541138,1674.150269 
	C637.302612,1711.765015 626.381775,1751.632690 613.021484,1790.630493 
	C603.000366,1819.881226 593.950317,1849.515503 582.621338,1878.250977 
	C573.565247,1901.221680 562.524048,1923.521851 550.865173,1945.317871 
	C542.056152,1961.786255 525.931763,1967.937622 507.836548,1969.074829 
	C505.511230,1969.220947 503.161163,1969.007080 500.840576,1969.189209 
	C486.148102,1970.342163 479.098602,1964.101807 475.753632,1948.435059 
	C472.943909,1935.275269 473.658173,1921.351562 472.989014,1907.757324 
	C472.877136,1905.484131 473.514893,1903.129517 474.068665,1900.876953 
	C475.412964,1895.408325 477.839600,1894.283203 483.220154,1896.356201 
	C494.401917,1900.664429 505.960052,1901.012451 517.542786,1898.852661 
	C520.343872,1898.330200 523.654602,1896.325684 525.195679,1893.989868 
	C531.948486,1883.753662 539.057129,1873.589600 544.368347,1862.593384 
	C565.164612,1819.538452 581.487366,1774.685425 595.233887,1728.951294 
	C604.218689,1699.058960 611.763550,1668.735718 620.117920,1638.651123 
	C623.983154,1624.732056 629.221252,1611.119019 632.060181,1597.009888 
	C635.237244,1581.220703 636.424805,1565.029297 638.405518,1549.004028 
	C638.597168,1547.453735 638.276733,1545.840088 638.193970,1544.255859 
	C637.702698,1543.963623 637.211365,1543.671509 636.720093,1543.379395 
	C632.132874,1548.656494 627.476562,1553.875122 622.970764,1559.220947 
	C606.057800,1579.286987 597.413086,1603.868042 586.776855,1627.217529 
	C565.096436,1674.811890 539.380554,1720.205444 513.944153,1765.796997 
	C499.053375,1792.486816 485.436066,1819.885010 470.702972,1846.665771 
	C461.345093,1863.675903 451.431732,1880.419800 440.970093,1896.773071 
	C428.169800,1916.782104 407.797150,1920.974243 385.989746,1920.594727 
	C378.254028,1920.460083 371.326843,1913.224365 371.116669,1905.003540 
	C370.910278,1896.930664 371.705231,1888.726074 373.047729,1880.745239 
	C374.974487,1869.290894 377.791779,1857.986328 380.238403,1846.619751 
	C381.030518,1842.939819 383.191559,1841.393433 387.059814,1841.720703 
	C394.180115,1842.323608 401.329285,1843.073730 408.457947,1842.994629 
	C427.966919,1842.778076 441.492279,1831.295044 444.843597,1811.957275 
	C445.912842,1805.787720 445.295685,1799.343384 446.058624,1793.098999 
	C447.160828,1784.078003 447.945282,1774.873779 450.442322,1766.201660 
	C454.171814,1753.249512 463.865143,1744.572021 475.802460,1739.477051 
	C488.463867,1734.072998 496.217896,1724.483398 502.879364,1713.318848 
	C517.975769,1688.017090 530.723450,1661.559082 541.969971,1633.935791 
M1367.955933,501.813385 
	C1367.179565,499.993774 1366.403320,498.174194 1365.310059,495.611755 
	C1360.093750,507.065063 1355.318237,517.550781 1350.566162,527.985107 
	C1352.710205,528.152710 1355.096924,527.944031 1357.227417,528.585938 
	C1362.037354,530.035156 1366.470947,528.579346 1367.122803,523.813599 
	C1368.076904,516.837585 1367.813721,509.694977 1367.955933,501.813385 
z"/>
<path fill="#0E0E0E" opacity="1.000000" stroke="none" 
	d="
M1368.012573,502.218384 
	C1367.813721,509.694977 1368.076904,516.837585 1367.122803,523.813599 
	C1366.470947,528.579346 1362.037354,530.035156 1357.227417,528.585938 
	C1355.096924,527.944031 1352.710205,528.152710 1350.566162,527.985107 
	C1355.318237,517.550781 1360.093750,507.065063 1365.310059,495.611755 
	C1366.403320,498.174194 1367.179565,499.993774 1368.012573,502.218384 
z"/>
</svg>